<svg width="57" height="62" viewBox="0 0 57 62" fill="none" xmlns="http://www.w3.org/2000/svg">
<path d="M44.9377 40.0127C44.0404 38.9988 43.1931 38.0408 42.4551 37.1049C40.9251 35.1629 39.9378 32.6664 38.9824 30.2525C37.0124 25.2728 34.9758 20.123 28.1585 20.123C21.5312 20.123 18.6719 26.3854 16.1492 31.9111C15.2839 33.8063 14.4666 35.5963 13.5533 37.0222C12.5119 38.6481 11.0326 40.2134 9.60128 41.728C7.66329 43.7779 5.65997 45.8978 4.62131 48.281C3.40665 51.0688 3.67931 53.83 5.45463 56.7226C7.13796 59.4651 9.40195 60.9477 12.3759 61.2537C12.7839 61.2957 13.1973 61.315 13.6146 61.315C15.8006 61.315 18.1039 60.791 20.3425 60.2817C21.3939 60.0424 22.4819 59.7951 23.5285 59.6098L24.1479 59.4998C27.5965 58.8845 27.8778 58.8345 31.5871 59.5044C32.6305 59.6931 33.7285 59.9457 34.7898 60.1911C40.1884 61.4357 46.3071 62.8463 50.0657 56.7232C51.8444 53.8254 51.9804 50.8362 50.4817 47.5857C49.227 44.8598 47.0464 42.3959 44.9377 40.0127ZM48.6157 55.8306C45.4977 60.9097 40.4838 59.7537 35.1745 58.5298C34.0931 58.2805 32.9751 58.0225 31.8918 57.8272C27.8812 57.1025 27.4225 57.1845 23.8505 57.8218L23.2332 57.9318C22.1459 58.1245 21.0379 58.3765 19.9665 58.6205C17.3172 59.2231 14.8152 59.7917 12.5519 59.5591C10.1079 59.3078 8.31462 58.1232 6.90796 55.8313C3.64265 50.5122 6.97863 46.9837 10.8406 42.8979C12.3259 41.3266 13.8619 39.7014 14.9892 37.9408C15.9672 36.4136 16.8092 34.5696 17.6999 32.6184C20.1219 27.3127 22.6265 21.8263 28.1592 21.8263C33.8185 21.8263 35.4778 26.0214 37.3991 30.8792C38.3991 33.407 39.4331 36.0216 41.1178 38.1595C41.8858 39.1341 42.7484 40.1094 43.6624 41.142C47.7171 45.7238 51.911 50.4629 48.6157 55.8306ZM36.1778 16.0665C39.8898 16.0665 42.0191 13.64 42.0191 9.40954C42.0191 4.95909 39.5731 0 36.0631 0C32.5531 0 30.1072 4.95909 30.1072 9.40954C30.1072 11.6121 30.7158 13.322 31.9171 14.492C32.9738 15.5226 34.4471 16.0665 36.1778 16.0665ZM36.0625 1.70325C38.2084 1.70325 40.3151 5.5204 40.3151 9.40954C40.3151 12.6967 38.9231 14.3633 36.1771 14.3633C34.5458 14.3633 31.8098 13.72 31.8098 9.40954C31.8098 5.5204 33.9165 1.70325 36.0625 1.70325ZM19.9366 16.0665C21.6672 16.0665 23.1405 15.5219 24.1979 14.492C25.3985 13.322 26.0078 11.6121 26.0078 9.40954C26.0078 4.95909 23.5619 0 20.0519 0C16.5419 0 14.0959 4.95909 14.0959 9.40954C14.0959 13.64 16.2246 16.0665 19.9366 16.0665ZM20.0519 1.70325C22.1979 1.70325 24.3045 5.5204 24.3045 9.40954C24.3045 13.72 21.5679 14.3633 19.9372 14.3633C17.1912 14.3633 15.7992 12.6967 15.7992 9.40954C15.7992 5.5204 17.9052 1.70325 20.0519 1.70325ZM50.1584 15.3919C46.6484 15.3919 44.2024 20.351 44.2024 24.8015C44.2024 27.004 44.8111 28.7139 46.0124 29.8839C47.0691 30.9138 48.543 31.4585 50.2737 31.4585C53.9857 31.4585 56.115 29.0319 56.115 24.8015C56.1143 20.351 53.6684 15.3919 50.1584 15.3919ZM50.273 29.7552C48.6417 29.7552 45.9057 29.1119 45.9057 24.8015C45.9057 20.9123 48.0124 17.0952 50.1584 17.0952C52.3044 17.0952 54.411 20.9123 54.411 24.8015C54.411 28.0886 53.019 29.7552 50.273 29.7552ZM11.9119 24.8015C11.9119 20.351 9.46594 15.3919 5.95597 15.3919C2.44599 15.3919 0 20.351 0 24.8015C0 27.004 0.608663 28.7139 1.80999 29.8839C2.86665 30.9138 4.34064 31.4585 6.0713 31.4585C9.78261 31.4585 11.9119 29.0319 11.9119 24.8015ZM1.70332 24.8015C1.70332 20.9123 3.80998 17.0952 5.95597 17.0952C8.10195 17.0952 10.2086 20.9123 10.2086 24.8015C10.2086 28.0886 8.81662 29.7552 6.07063 29.7552C4.43931 29.7552 1.70332 29.1119 1.70332 24.8015Z" fill="white"/>
<path d="M34.988 42.2495C35.0493 42.8856 35.5873 43.3848 36.2392 43.3848C36.9317 43.3848 37.4968 42.8203 37.4968 42.1269C37.4968 41.4342 36.9325 40.869 36.2392 40.869C35.6629 40.869 35.1758 41.2607 35.0286 41.7925L30.9917 41.7933V39.8085H32.2548C32.3304 39.8085 32.4013 39.7695 32.4443 39.7066L33.9295 37.4909H35.0032C35.1115 38.0761 35.6248 38.5203 36.2401 38.5203C36.9326 38.5203 37.4977 37.9559 37.4977 37.2624C37.4977 36.5698 36.9334 36.0045 36.2401 36.0045C35.6248 36.0045 35.1114 36.4488 35.0032 37.0339H33.8069C33.7313 37.0339 33.6605 37.073 33.6175 37.1358L32.1322 39.3515H30.9908L30.9916 39.0275C30.9916 38.3754 30.4615 37.8452 29.8097 37.8452H28.2281L29.3488 34.8286H30.9383C31.0466 35.4137 31.56 35.858 32.1752 35.858C32.8677 35.858 33.4328 35.2935 33.4328 34.6001C33.4328 33.9074 32.8685 33.3422 32.1752 33.3422C31.56 33.3422 31.0466 33.7864 30.9383 34.3716H29.1904C29.0949 34.3716 29.009 34.4305 28.9763 34.5205L27.7418 37.8444L27.043 37.8452C27.043 36.9607 27.0406 36.0555 27.0406 35.1184C27.0406 33.8852 26.1197 32.8724 24.8986 32.7603C23.6864 32.6481 22.4837 33.4187 22.089 34.5333C21.6488 34.5906 21.2389 34.8613 20.993 35.2873C20.7223 35.7522 20.681 36.335 20.8728 36.8366C20.1572 37.0794 19.5706 37.6311 19.2793 38.3755C18.9124 39.315 19.1082 40.3913 19.7601 41.1374C19.3462 41.498 19.0509 41.9813 18.9203 42.5235C18.7755 43.123 18.8407 43.7487 19.0954 44.2965C18.7739 44.7941 18.6696 45.4071 18.8121 46.0002C18.9729 46.673 19.4154 47.2008 20.01 47.4452C20.0124 48.071 20.275 48.6705 20.7351 49.0717C21.2015 49.4817 21.8192 49.6322 22.4042 49.4977C22.4655 50.0502 22.6915 50.5247 23.0704 50.8837C23.4898 51.281 24.0709 51.4992 24.7044 51.4992C25.9987 51.4992 27.0518 50.3416 27.0518 48.9189V46.1921H27.7426L28.9772 49.5161C29.0098 49.606 29.095 49.6649 29.1913 49.6649H30.9392C31.0474 50.2501 31.5608 50.6944 32.176 50.6944C32.8685 50.6944 33.4336 50.1299 33.4336 49.4364C33.4336 48.7438 32.8693 48.1785 32.176 48.1785C31.5608 48.1785 31.0474 48.6228 30.9392 49.208H29.3497L28.229 46.1913H29.8105C30.4624 46.1913 30.9925 45.6611 30.9925 45.009V44.6874H32.1339L33.6191 46.9031C33.6621 46.966 33.7329 47.005 33.8085 47.005H35.0048C35.1131 47.5901 35.6265 48.0344 36.2417 48.0344C36.9342 48.0344 37.4993 47.4699 37.4993 46.7765C37.4993 46.0838 36.935 45.5186 36.2417 45.5186C35.6265 45.5186 35.1131 45.9628 35.0048 46.548H33.9311L32.4427 44.3348C32.3997 44.2719 32.3289 44.2329 32.2533 44.2329H30.9901V42.2481H34.9881L34.988 42.2495ZM36.2384 41.3244C36.681 41.3244 37.0391 41.6834 37.0391 42.1253C37.0391 42.5679 36.6802 42.9262 36.2384 42.9262C35.7959 42.9262 35.4377 42.5671 35.4377 42.1253C35.4377 41.685 35.7967 41.3244 36.2384 41.3244ZM36.2384 36.4616C36.681 36.4616 37.0391 36.8206 37.0391 37.2625C37.0391 37.7052 36.6802 38.0634 36.2384 38.0634C35.7959 38.0634 35.4377 37.7044 35.4377 37.2625C35.4377 36.8222 35.7967 36.4616 36.2384 36.4616ZM32.1758 33.8016C32.6184 33.8016 32.9765 34.1607 32.9765 34.6026C32.9765 35.0452 32.6176 35.4035 32.1758 35.4035C31.7333 35.4035 31.3751 35.0444 31.3751 34.6026C31.3751 34.1607 31.7333 33.8016 32.1758 33.8016ZM32.1758 48.6369C32.6184 48.6369 32.9765 48.996 32.9765 49.4379C32.9765 49.8805 32.6176 50.2388 32.1758 50.2388C31.7333 50.2388 31.3751 49.8797 31.3751 49.4379C31.3751 48.9976 31.7333 48.6369 32.1758 48.6369ZM27.0451 39.5673H28.9275C29.117 39.5673 29.2698 39.7201 29.2698 39.9096V44.1283C29.2698 44.3178 29.117 44.4707 28.9275 44.4707H27.0491C27.0491 43.4867 27.0451 40.248 27.0451 39.5673ZM24.7059 46.7986C25.747 46.7986 26.5947 47.7507 26.5947 48.9202C26.5947 50.0898 25.747 51.0419 24.7059 51.0419C23.6115 51.0419 22.8458 50.28 22.8458 49.1893C22.8458 49.1137 22.8068 49.0428 22.7439 48.9998C22.7049 48.9752 22.6627 48.9608 22.6174 48.9608C22.5871 48.9608 22.5585 48.9672 22.5298 48.9791C22.0268 49.1893 21.4537 49.093 21.0382 48.7283C20.6426 48.382 20.4333 47.8502 20.4739 47.304C20.4819 47.1982 20.415 47.1002 20.3131 47.0676C19.7894 46.9068 19.3962 46.4681 19.2577 45.8933C19.1638 45.5039 19.2044 45.1027 19.366 44.754C19.7942 45.3392 20.4397 45.7197 21.1512 45.8033C21.2778 45.8176 21.39 45.7277 21.406 45.6035C21.4203 45.4769 21.3303 45.3646 21.2062 45.3487C20.6052 45.2771 20.0608 44.9474 19.7082 44.4419C19.3413 43.9165 19.2195 43.2557 19.3699 42.6299C19.4965 42.1084 19.8037 41.6514 20.2383 41.3457C20.2956 41.3067 20.3298 41.2438 20.3338 41.1745C20.3378 41.1053 20.3115 41.0376 20.2622 40.9914C19.5999 40.376 19.3779 39.3896 19.7098 38.5394C20.0377 37.6978 20.8225 37.1557 21.7044 37.1557C22.8601 37.1557 23.8034 38.0832 23.8519 39.2655C23.8582 39.3921 23.9617 39.4876 24.0907 39.4853C24.2172 39.4789 24.3151 39.373 24.3103 39.2464C24.253 37.8173 23.1085 36.6963 21.7061 36.6963C21.5779 36.6963 21.4514 36.7067 21.3288 36.7226C21.1616 36.3372 21.1839 35.8771 21.3956 35.5116C21.5914 35.1733 21.913 34.9774 22.2536 34.9735H22.2799C22.3468 34.9758 22.4144 34.9838 22.4837 34.9997C22.9445 35.112 23.2868 35.5682 23.313 36.1088C23.3194 36.2353 23.4253 36.3309 23.5534 36.3245C23.68 36.3181 23.7755 36.2107 23.7691 36.0841C23.7301 35.3421 23.2454 34.7123 22.5895 34.5555C22.5856 34.5531 22.5816 34.5531 22.5752 34.5515C22.9461 33.6972 23.8997 33.1224 24.8612 33.2108C25.845 33.3008 26.5868 34.12 26.5868 35.1144C26.5868 35.9949 26.5868 36.8468 26.5892 37.6779C26.2589 37.3356 25.8657 37.0705 25.4423 36.9176C25.3245 36.8746 25.1915 36.9359 25.1486 37.0545C25.1056 37.1724 25.1669 37.3053 25.2855 37.3483C25.7988 37.5338 26.2597 37.9088 26.5892 38.4064C26.5892 39.4907 26.5956 45.336 26.5972 47.39C26.1689 46.7523 25.4828 46.3343 24.7084 46.3343C24.5818 46.3343 24.48 46.4362 24.48 46.5628C24.4776 46.695 24.5794 46.7986 24.7059 46.7986ZM30.5331 45.0136C30.5331 45.4133 30.2092 45.7373 29.8096 45.7373L27.0509 45.7365V44.9292H28.9293C29.3718 44.9292 29.73 44.5702 29.73 44.1283V39.9096C29.73 39.4669 29.371 39.1087 28.9293 39.1087H27.0469V38.3014H29.8136C30.2131 38.3014 30.5371 38.6254 30.5371 39.0251L30.5379 45.0137L30.5331 45.0136ZM36.2384 45.9769C36.681 45.9769 37.0391 46.336 37.0391 46.7779C37.0391 47.2205 36.6802 47.5788 36.2384 47.5788C35.7959 47.5788 35.4377 47.2197 35.4377 46.7779C35.4377 46.336 35.7967 45.9769 36.2384 45.9769ZM21.6249 43.8512C21.5389 43.8512 21.4513 43.8448 21.3638 43.8329C21.2396 43.8146 21.1521 43.6983 21.1704 43.5741C21.1887 43.4499 21.3049 43.3623 21.4291 43.3807C22.0427 43.4706 22.6293 43.1482 22.9549 42.5694C22.4901 42.4086 22.0913 42.0678 21.8302 41.6037C21.4736 40.966 21.4227 40.1746 21.6957 39.4899C21.7427 39.3721 21.8748 39.3148 21.9934 39.3617C22.1112 39.4087 22.1685 39.5409 22.1215 39.6595C21.8995 40.2176 21.9401 40.8617 22.2314 41.3815C22.4781 41.8258 22.8649 42.1132 23.3218 42.1944C23.7047 42.2613 24.0939 42.1681 24.4202 41.9277C24.5221 41.8521 24.6646 41.8744 24.7402 41.9763C24.8158 42.0782 24.7935 42.2207 24.6916 42.2963C24.3143 42.5758 23.8702 42.7039 23.4221 42.6689C23.0655 43.395 22.3667 43.8512 21.6249 43.8512ZM24.3883 45.5024C23.7547 45.6632 23.2676 46.2643 23.1681 46.9904C23.6448 47.2595 24.0301 47.7157 24.2339 48.2865C24.2768 48.4043 24.2132 48.5373 24.0954 48.5779C24.0707 48.5859 24.0444 48.5922 24.0181 48.5922C23.9242 48.5922 23.8367 48.5333 23.8024 48.4418C23.5358 47.6958 22.8632 47.1799 22.1604 47.1799H22.1461H22.1437C22.0195 47.1799 21.9153 47.078 21.9153 46.9538C21.9129 46.8272 22.0148 46.7237 22.1413 46.7237C22.3451 46.7213 22.5425 46.75 22.7319 46.8073C22.8911 45.945 23.4841 45.2628 24.2721 45.0629C24.3946 45.0327 24.5188 45.1059 24.549 45.2277C24.5857 45.3471 24.51 45.4721 24.3883 45.5024Z" fill="white"/>
</svg>
