<svg width="400" height="321" viewBox="0 0 400 321" fill="none" xmlns="http://www.w3.org/2000/svg">
<path d="M267.754 160.053C264.165 155.998 260.775 152.166 257.823 148.422C251.703 140.654 247.754 130.668 243.933 121.012C236.052 101.093 227.906 80.4934 200.636 80.4934C174.126 80.4934 162.689 105.543 152.598 127.647C149.137 135.228 145.867 142.387 142.214 148.091C138.049 154.595 132.131 160.856 126.406 166.915C118.654 175.114 110.64 183.594 106.486 193.127C101.627 204.279 102.718 215.324 109.819 226.894C116.552 237.864 125.608 243.795 137.505 245.019C139.137 245.187 140.79 245.264 142.459 245.264C151.203 245.264 160.417 243.168 169.372 241.131C173.577 240.174 177.929 239.184 182.116 238.443L184.593 238.003C198.388 235.542 199.513 235.342 214.351 238.022C218.524 238.776 222.916 239.787 227.162 240.768C248.757 245.747 273.232 251.389 288.266 226.897C295.381 215.305 295.925 203.348 289.93 190.346C284.912 179.442 276.189 169.586 267.754 160.053ZM282.466 223.326C269.994 243.643 249.938 239.019 228.7 234.123C224.375 233.126 219.903 232.094 215.57 231.312C199.527 228.414 197.692 228.742 183.404 231.291L180.934 231.731C176.585 232.502 172.153 233.51 167.868 234.486C157.27 236.896 147.262 239.171 138.209 238.24C128.432 237.235 121.259 232.496 115.632 223.329C102.571 202.052 115.915 187.938 131.363 171.594C137.305 165.309 143.449 158.808 147.958 151.766C151.87 145.657 155.238 138.281 158.801 130.476C168.489 109.252 178.508 87.3065 200.639 87.3065C223.276 87.3065 229.914 104.087 237.599 123.519C241.599 133.63 245.735 144.089 252.474 152.64C255.546 156.539 258.997 160.44 262.653 164.571C278.872 182.898 295.648 201.855 282.466 223.326ZM232.714 64.2672C247.562 64.2672 256.079 54.5609 256.079 37.6388C256.079 19.8367 246.295 0 232.255 0C218.215 0 208.431 19.8367 208.431 37.6388C208.431 46.4492 210.865 53.2889 215.671 57.9688C219.898 62.0913 225.791 64.2672 232.714 64.2672ZM232.252 6.81311C240.836 6.81311 249.263 22.082 249.263 37.6388C249.263 50.7877 243.695 57.4541 232.711 57.4541C226.186 57.4541 215.242 54.8809 215.242 37.6388C215.242 22.082 223.668 6.81311 232.252 6.81311ZM167.748 64.2672C174.67 64.2672 180.564 62.0886 184.793 57.9688C189.596 53.2889 192.033 46.4492 192.033 37.6388C192.033 19.8367 182.249 0 168.209 0C154.169 0 144.385 19.8367 144.385 37.6388C144.385 54.5609 152.899 64.2672 167.748 64.2672ZM168.209 6.81311C176.793 6.81311 185.22 22.082 185.22 37.6388C185.22 54.8809 174.273 57.4541 167.75 57.4541C156.766 57.4541 151.198 50.7877 151.198 37.6388C151.198 22.082 159.622 6.81311 168.209 6.81311ZM288.637 61.5687C274.597 61.5687 264.813 81.4053 264.813 99.2074C264.813 108.018 267.247 114.858 272.053 119.537C276.28 123.657 282.176 125.836 289.098 125.836C303.947 125.836 312.464 116.13 312.464 99.2074C312.461 81.4053 302.677 61.5687 288.637 61.5687ZM289.096 119.023C282.57 119.023 271.626 116.45 271.626 99.2074C271.626 83.6506 280.053 68.3818 288.637 68.3818C297.221 68.3818 305.648 83.6506 305.648 99.2074C305.648 112.356 300.08 119.023 289.096 119.023ZM135.649 99.2074C135.649 81.4053 125.864 61.5687 111.824 61.5687C97.7841 61.5687 88 81.4053 88 99.2074C88 108.018 90.4347 114.858 95.2401 119.537C99.4668 123.657 105.363 125.836 112.286 125.836C127.131 125.836 135.649 116.13 135.649 99.2074ZM94.8134 99.2074C94.8134 83.6506 103.24 68.3818 111.824 68.3818C120.408 68.3818 128.835 83.6506 128.835 99.2074C128.835 112.356 123.267 119.023 112.283 119.023C105.758 119.023 94.8134 116.45 94.8134 99.2074Z" fill="white"/>
<path d="M227.954 169.001C228.2 171.545 230.352 173.542 232.959 173.542C235.729 173.542 237.99 171.284 237.99 168.51C237.99 165.74 235.733 163.479 232.959 163.479C230.654 163.479 228.706 165.045 228.117 167.173L211.969 167.176V159.237H217.022C217.324 159.237 217.607 159.081 217.779 158.829L223.72 149.966H228.015C228.448 152.307 230.502 154.084 232.963 154.084C235.733 154.084 237.993 151.826 237.993 149.052C237.993 146.282 235.736 144.021 232.963 144.021C230.502 144.021 228.448 145.798 228.015 148.138H223.23C222.928 148.138 222.644 148.294 222.472 148.546L216.531 157.409H211.966L211.969 156.112C211.969 153.504 209.848 151.383 207.241 151.383H200.915L205.397 139.317H211.755C212.188 141.657 214.242 143.434 216.703 143.434C219.473 143.434 221.734 141.176 221.734 138.403C221.734 135.632 219.476 133.371 216.703 133.371C214.242 133.371 212.188 135.148 211.755 137.489H204.764C204.382 137.489 204.038 137.724 203.907 138.084L198.969 151.38L196.174 151.383C196.174 147.845 196.164 144.224 196.164 140.476C196.164 135.543 192.481 131.492 187.596 131.043C182.747 130.594 177.936 133.677 176.357 138.136C174.597 138.365 172.957 139.448 171.973 141.151C170.891 143.011 170.725 145.342 171.493 147.349C168.63 148.32 166.284 150.527 165.119 153.505C163.651 157.262 164.434 161.568 167.042 164.552C165.386 165.995 164.205 167.928 163.683 170.097C163.103 172.495 163.364 174.998 164.383 177.189C163.097 179.179 162.68 181.631 163.25 184.004C163.893 186.695 165.663 188.806 168.041 189.784C168.051 192.287 169.102 194.685 170.942 196.29C172.808 197.93 175.278 198.532 177.618 197.994C177.863 200.204 178.768 202.102 180.283 203.538C181.961 205.127 184.285 206 186.82 206C191.996 206 196.209 201.37 196.209 195.679V184.771H198.973L203.911 198.068C204.041 198.427 204.382 198.663 204.767 198.663H211.759C212.192 201.004 214.245 202.781 216.706 202.781C219.476 202.781 221.737 200.523 221.737 197.749C221.737 194.978 219.48 192.717 216.706 192.717C214.245 192.717 212.192 194.494 211.759 196.835H205.401L200.918 184.768H207.244C209.852 184.768 211.972 182.647 211.972 180.039V178.753H216.538L222.479 187.615C222.651 187.867 222.934 188.023 223.237 188.023H228.022C228.455 190.364 230.508 192.141 232.97 192.141C235.739 192.141 238 189.883 238 187.109C238 184.338 235.743 182.077 232.97 182.077C230.508 182.077 228.455 183.854 228.022 186.195H223.727L217.773 177.342C217.601 177.09 217.318 176.934 217.015 176.934H211.963V168.995H227.955L227.954 169.001ZM232.956 165.3C234.726 165.3 236.159 166.736 236.159 168.504C236.159 170.275 234.723 171.708 232.956 171.708C231.186 171.708 229.753 170.271 229.753 168.504C229.753 166.743 231.189 165.3 232.956 165.3ZM232.956 145.849C234.726 145.849 236.159 147.285 236.159 149.053C236.159 150.823 234.723 152.256 232.956 152.256C231.186 152.256 229.753 150.82 229.753 149.053C229.753 147.291 231.189 145.849 232.956 145.849ZM216.706 135.209C218.476 135.209 219.909 136.645 219.909 138.413C219.909 140.183 218.473 141.616 216.706 141.616C214.935 141.616 213.503 140.18 213.503 138.413C213.503 136.645 214.935 135.209 216.706 135.209ZM216.706 194.551C218.476 194.551 219.909 195.987 219.909 197.755C219.909 199.525 218.473 200.958 216.706 200.958C214.935 200.958 213.503 199.522 213.503 197.755C213.503 195.994 214.935 194.551 216.706 194.551ZM196.182 158.272H203.712C204.47 158.272 205.081 158.883 205.081 159.641V176.516C205.081 177.274 204.47 177.886 203.712 177.886H196.198C196.198 173.95 196.182 160.995 196.182 158.272ZM186.825 187.197C190.99 187.197 194.381 191.006 194.381 195.684C194.381 200.362 190.99 204.171 186.825 204.171C182.448 204.171 179.385 201.123 179.385 196.761C179.385 196.458 179.229 196.175 178.977 196.003C178.821 195.904 178.653 195.847 178.471 195.847C178.35 195.847 178.236 195.872 178.121 195.92C176.109 196.76 173.816 196.375 172.154 194.917C170.572 193.531 169.735 191.404 169.897 189.219C169.929 188.796 169.661 188.404 169.254 188.273C167.159 187.63 165.586 185.875 165.032 183.576C164.657 182.019 164.819 180.414 165.465 179.019C167.178 181.36 169.76 182.882 172.607 183.216C173.113 183.274 173.562 182.914 173.625 182.417C173.683 181.911 173.323 181.462 172.826 181.398C170.422 181.111 168.245 179.793 166.834 177.771C165.366 175.669 164.879 173.026 165.481 170.522C165.987 168.436 167.216 166.608 168.955 165.386C169.184 165.23 169.321 164.978 169.337 164.701C169.353 164.424 169.247 164.153 169.05 163.968C166.401 161.507 165.513 157.561 166.841 154.16C168.152 150.794 171.292 148.625 174.819 148.625C179.442 148.625 183.215 152.335 183.409 157.065C183.435 157.571 183.849 157.953 184.364 157.944C184.871 157.918 185.262 157.495 185.243 156.988C185.014 151.272 180.436 146.788 174.826 146.788C174.313 146.788 173.807 146.829 173.317 146.893C172.648 145.351 172.737 143.511 173.584 142.049C174.367 140.695 175.654 139.912 177.016 139.896H177.121C177.389 139.906 177.659 139.938 177.936 140.001C179.78 140.45 181.149 142.275 181.254 144.437C181.279 144.944 181.703 145.326 182.215 145.3C182.722 145.275 183.104 144.845 183.078 144.339C182.922 141.371 180.983 138.852 178.36 138.224C178.344 138.215 178.328 138.215 178.302 138.208C179.786 134.791 183.6 132.492 187.447 132.845C191.382 133.205 194.349 136.482 194.349 140.46C194.349 143.982 194.349 147.39 194.359 150.714C193.037 149.345 191.465 148.284 189.771 147.673C189.3 147.501 188.768 147.746 188.596 148.221C188.424 148.692 188.669 149.224 189.144 149.396C191.197 150.138 193.041 151.638 194.359 153.628C194.359 157.966 194.384 181.347 194.391 189.563C192.678 187.012 189.933 185.34 186.835 185.34C186.329 185.34 185.922 185.748 185.922 186.254C185.912 186.783 186.319 187.197 186.825 187.197ZM210.135 180.057C210.135 181.656 208.839 182.952 207.24 182.952L196.205 182.949V179.72H203.719C205.489 179.72 206.922 178.284 206.922 176.516V159.641C206.922 157.87 205.486 156.437 203.719 156.437H196.189V153.208H207.256C208.855 153.208 210.15 154.504 210.15 156.103L210.154 180.058L210.135 180.057ZM232.956 183.911C234.726 183.911 236.159 185.347 236.159 187.115C236.159 188.885 234.723 190.318 232.956 190.318C231.186 190.318 229.753 188.882 229.753 187.115C229.753 185.347 231.189 183.911 232.956 183.911ZM174.501 175.408C174.157 175.408 173.807 175.382 173.457 175.334C172.96 175.261 172.61 174.796 172.683 174.299C172.756 173.803 173.221 173.452 173.718 173.526C176.172 173.885 178.519 172.596 179.821 170.28C177.962 169.637 176.367 168.274 175.322 166.417C173.896 163.867 173.692 160.701 174.784 157.962C174.972 157.491 175.501 157.262 175.975 157.45C176.446 157.638 176.676 158.166 176.488 158.641C175.599 160.873 175.762 163.449 176.927 165.529C177.914 167.306 179.461 168.456 181.289 168.78C182.82 169.048 184.377 168.675 185.683 167.714C186.09 167.411 186.66 167.5 186.962 167.908C187.265 168.316 187.176 168.886 186.768 169.188C185.259 170.306 183.483 170.819 181.69 170.678C180.264 173.583 177.468 175.408 174.501 175.408ZM185.555 182.013C183.02 182.656 181.072 185.06 180.674 187.965C182.581 189.041 184.122 190.866 184.937 193.149C185.109 193.621 184.854 194.152 184.383 194.315C184.284 194.347 184.179 194.372 184.074 194.372C183.699 194.372 183.348 194.136 183.211 193.77C182.145 190.786 179.455 188.723 176.643 188.723H176.586H176.576C176.08 188.723 175.663 188.315 175.663 187.818C175.653 187.312 176.061 186.898 176.567 186.898C177.382 186.888 178.172 187.003 178.929 187.232C179.566 183.783 181.938 181.054 185.09 180.255C185.58 180.134 186.077 180.427 186.198 180.914C186.344 181.392 186.042 181.892 185.555 182.013Z" fill="white"/>
<path d="M28.1038 319V285.592H40.5358C42.9678 285.592 45.2078 286.2 47.2558 287.416C49.3358 288.632 50.9838 290.28 52.1998 292.36C53.4158 294.408 54.0238 296.648 54.0238 299.08V305.512C54.0238 307.944 53.4158 310.2 52.1998 312.28C50.9838 314.328 49.3358 315.96 47.2558 317.176C45.2078 318.392 42.9678 319 40.5358 319H28.1038ZM74.723 285.592H76.595L90.323 319H88.403L83.891 307.96H67.427L62.867 319H60.995L74.723 285.592ZM68.147 306.232H83.171L75.635 287.896L68.147 306.232ZM124.654 285.592V287.368H112.03V319H110.302V287.368H97.6783V285.592H124.654ZM145.786 285.592H147.658L161.386 319H159.466L154.954 307.96H138.49L133.93 319H132.058L145.786 285.592ZM139.21 306.232H154.234L146.698 287.896L139.21 306.232ZM168.741 285.544H170.661L182.325 306.184L193.941 285.544H195.717V318.952H168.741V285.544ZM170.517 317.224H193.941V289.144L183.141 308.152H181.461L170.517 288.856V317.224ZM216.848 285.592H218.72L232.448 319H230.528L226.016 307.96H209.552L204.992 319H203.12L216.848 285.592ZM210.272 306.232H225.296L217.76 287.896L210.272 306.232ZM266.779 285.592V287.368H254.155V319H252.427V287.368H239.803V285.592H266.779ZM275.959 319V285.592H277.735V301.384H299.911V285.592H301.687V319H299.911V303.16H277.735V319H275.959ZM310.866 285.592H312.642V306.232C312.642 308.344 313.17 310.296 314.226 312.088C315.282 313.88 316.706 315.304 318.498 316.36C320.29 317.416 322.242 317.944 324.354 317.944C326.466 317.944 328.418 317.416 330.21 316.36C332.002 315.304 333.426 313.88 334.482 312.088C335.538 310.296 336.066 308.344 336.066 306.232V285.592H337.842V306.232C337.842 308.664 337.234 310.92 336.018 313C334.802 315.048 333.154 316.68 331.074 317.896C329.026 319.112 326.786 319.72 324.354 319.72C321.922 319.72 319.666 319.112 317.586 317.896C315.538 316.68 313.906 315.048 312.69 313C311.474 310.92 310.866 308.664 310.866 306.232V285.592ZM367.133 286.696C369.053 287.592 370.557 288.92 371.645 290.68C372.765 292.44 373.325 294.392 373.325 296.536C373.325 299.032 372.557 301.272 371.021 303.256C369.517 305.208 367.581 306.504 365.213 307.144L373.709 319H371.597L363.389 307.48L361.853 307.528H349.805V319H348.029V285.592H360.749C362.157 285.592 363.357 285.688 364.349 285.88C365.373 286.04 366.301 286.312 367.133 286.696ZM362.333 305.752C363.997 305.752 365.533 305.336 366.941 304.504C368.349 303.672 369.469 302.552 370.301 301.144C371.133 299.736 371.549 298.2 371.549 296.536C371.549 294.68 371.053 293 370.061 291.496C369.101 289.992 367.757 288.872 366.029 288.136C364.781 287.624 363.021 287.368 360.749 287.368H349.805V305.752H362.333Z" fill="white"/>
</svg>
