<svg width="100" height="81" viewBox="0 0 100 81" fill="none" xmlns="http://www.w3.org/2000/svg">
<path d="M66.9385 40.0134C66.0412 38.9994 65.1938 38.0414 64.4558 37.1055C62.9258 35.1635 61.9385 32.6669 60.9831 30.253C59.0131 25.2732 56.9764 20.1233 50.159 20.1233C43.5316 20.1233 40.6722 26.3858 38.1495 31.9116C37.2842 33.8069 36.4668 35.5968 35.5535 37.0228C34.5121 38.6487 33.0328 40.214 31.6014 41.7286C29.6634 43.7786 27.6601 45.8985 26.6214 48.2818C25.4067 51.0697 25.6794 53.8309 27.4547 56.7235C29.1381 59.4661 31.4021 60.9487 34.3761 61.2547C34.7842 61.2967 35.1975 61.316 35.6148 61.316C37.8009 61.316 40.1042 60.792 42.3429 60.2827C43.3943 60.0434 44.4823 59.7961 45.5289 59.6107L46.1483 59.5007C49.597 58.8854 49.8783 58.8354 53.5877 59.5054C54.6311 59.6941 55.7291 59.9467 56.7904 60.192C62.1891 61.4367 68.3079 62.8473 72.0666 56.7242C73.8453 53.8262 73.9813 50.837 72.4826 47.5865C71.2279 44.8605 69.0472 42.3966 66.9385 40.0134ZM70.6166 55.8315C67.4985 60.9107 62.4845 59.7547 57.1751 58.5308C56.0937 58.2814 54.9757 58.0234 53.8924 57.8281C49.8817 57.1035 49.423 57.1855 45.8509 57.8228L45.2336 57.9328C44.1463 58.1254 43.0383 58.3774 41.9669 58.6214C39.3175 59.2241 36.8155 59.7927 34.5522 59.5601C32.1081 59.3087 30.3148 58.1241 28.9081 55.8322C25.6427 50.513 28.9787 46.9845 32.8408 42.8986C34.3261 41.3273 35.8622 39.702 36.9895 37.9414C37.9675 36.4141 38.8095 34.5702 39.7002 32.6189C42.1222 27.3131 44.6269 21.8266 50.1597 21.8266C55.8191 21.8266 57.4784 26.0218 59.3998 30.8797C60.3998 33.4076 61.4338 36.0222 63.1185 38.1601C63.8865 39.1347 64.7492 40.11 65.6632 41.1427C69.7179 45.7245 73.9119 50.4637 70.6166 55.8315ZM58.1784 16.0668C61.8905 16.0668 64.0198 13.6402 64.0198 9.40969C64.0198 4.95917 61.5738 0 58.0638 0C54.5537 0 52.1077 4.95917 52.1077 9.40969C52.1077 11.6123 52.7164 13.3222 53.9177 14.4922C54.9744 15.5228 56.4477 16.0668 58.1784 16.0668ZM58.0631 1.70328C60.2091 1.70328 62.3158 5.52049 62.3158 9.40969C62.3158 12.6969 60.9238 14.3635 58.1778 14.3635C56.5464 14.3635 53.8104 13.7202 53.8104 9.40969C53.8104 5.52049 55.9171 1.70328 58.0631 1.70328ZM41.9369 16.0668C43.6676 16.0668 45.1409 15.5222 46.1983 14.4922C47.399 13.3222 48.0083 11.6123 48.0083 9.40969C48.0083 4.95917 45.5623 0 42.0522 0C38.5422 0 36.0962 4.95917 36.0962 9.40969C36.0962 13.6402 38.2249 16.0668 41.9369 16.0668ZM42.0522 1.70328C44.1983 1.70328 46.305 5.52049 46.305 9.40969C46.305 13.7202 43.5683 14.3635 41.9376 14.3635C39.1915 14.3635 37.7995 12.6969 37.7995 9.40969C37.7995 5.52049 39.9055 1.70328 42.0522 1.70328ZM72.1593 15.3922C68.6492 15.3922 66.2032 20.3513 66.2032 24.8019C66.2032 27.0045 66.8119 28.7144 68.0132 29.8844C69.0699 30.9143 70.5439 31.459 72.2746 31.459C75.9866 31.459 78.116 29.0324 78.116 24.8019C78.1153 20.3513 75.6693 15.3922 72.1593 15.3922ZM72.2739 29.7557C70.6426 29.7557 67.9065 29.1124 67.9065 24.8019C67.9065 20.9127 70.0132 17.0954 72.1593 17.0954C74.3053 17.0954 76.412 20.9127 76.412 24.8019C76.412 28.0891 75.02 29.7557 72.2739 29.7557ZM33.9121 24.8019C33.9121 20.3513 31.4661 15.3922 27.9561 15.3922C24.446 15.3922 22 20.3513 22 24.8019C22 27.0045 22.6087 28.7144 23.81 29.8844C24.8667 30.9143 26.3407 31.459 28.0714 31.459C31.7828 31.459 33.9121 29.0324 33.9121 24.8019ZM23.7034 24.8019C23.7034 20.9127 25.81 17.0954 27.9561 17.0954C30.1021 17.0954 32.2088 20.9127 32.2088 24.8019C32.2088 28.0891 30.8168 29.7557 28.0707 29.7557C26.4394 29.7557 23.7034 29.1124 23.7034 24.8019Z" fill="white"/>
<path d="M56.9886 42.2502C57.0499 42.8863 57.588 43.3855 58.2399 43.3855C58.9323 43.3855 59.4975 42.821 59.4975 42.1276C59.4975 41.4349 58.9331 40.8696 58.2399 40.8696C57.6636 40.8696 57.1764 41.2613 57.0292 41.7932L52.9922 41.7939V39.8091H54.2554C54.331 39.8091 54.4018 39.7701 54.4448 39.7072L55.9301 37.4915H57.0038C57.1121 38.0767 57.6255 38.521 58.2407 38.521C58.9332 38.521 59.4984 37.9565 59.4984 37.263C59.4984 36.5704 58.934 36.0051 58.2407 36.0051C57.6255 36.0051 57.1121 36.4494 57.0038 37.0345H55.8075C55.7319 37.0345 55.6611 37.0736 55.6181 37.1365L54.1328 39.3521H52.9914L52.9922 39.0281C52.9922 38.3761 52.4621 37.8458 51.8102 37.8458H50.2286L51.3493 34.8291H52.9389C53.0471 35.4143 53.5605 35.8586 54.1758 35.8586C54.8683 35.8586 55.4334 35.2941 55.4334 34.6006C55.4334 33.908 54.8691 33.3427 54.1758 33.3427C53.5605 33.3427 53.0471 33.787 52.9389 34.3721H51.191C51.0954 34.3721 51.0095 34.4311 50.9768 34.521L49.7423 37.8451L49.0435 37.8458C49.0435 36.9613 49.0411 36.0561 49.0411 35.119C49.0411 33.8857 48.1201 32.8729 46.8991 32.7608C45.6868 32.6486 44.4841 33.4193 44.0894 34.5339C43.6492 34.5912 43.2393 34.8619 42.9933 35.2878C42.7227 35.7528 42.6813 36.3356 42.8731 36.8372C42.1576 37.08 41.571 37.6317 41.2796 38.3761C40.9127 39.3156 41.1085 40.392 41.7604 41.138C41.3465 41.4987 41.0512 41.982 40.9207 42.5242C40.7758 43.1237 40.8411 43.7494 41.0958 44.2972C40.7742 44.7948 40.67 45.4078 40.8124 46.001C40.9732 46.6737 41.4158 47.2016 42.0103 47.446C42.0127 48.0718 42.2754 48.6713 42.7355 49.0725C43.2019 49.4825 43.8196 49.633 44.4046 49.4985C44.4659 50.051 44.6919 50.5255 45.0708 50.8846C45.4903 51.2819 46.0713 51.5 46.7049 51.5C47.9991 51.5 49.0523 50.3424 49.0523 48.9197V46.1928H49.7431L50.9777 49.5169C51.0103 49.6068 51.0955 49.6658 51.1918 49.6658H52.9397C53.048 50.2509 53.5614 50.6952 54.1766 50.6952C54.8691 50.6952 55.4342 50.1307 55.4342 49.4373C55.4342 48.7446 54.8699 48.1793 54.1766 48.1793C53.5614 48.1793 53.0479 48.6236 52.9397 49.2088H51.3502L50.2295 46.1921H51.811C52.4629 46.1921 52.993 45.6618 52.993 45.0098V44.6881H54.1344L55.6197 46.9038C55.6627 46.9667 55.7335 47.0057 55.8091 47.0057H57.0055C57.1137 47.5909 57.6271 48.0352 58.2424 48.0352C58.9349 48.0352 59.5 47.4707 59.5 46.7772C59.5 46.0846 58.9357 45.5193 58.2424 45.5193C57.6271 45.5193 57.1137 45.9636 57.0055 46.5487H55.9317L54.4433 44.3355C54.4003 44.2726 54.3295 44.2336 54.2538 44.2336H52.9907V42.2488H56.9887L56.9886 42.2502ZM58.2391 41.325C58.6816 41.325 59.0398 41.6841 59.0398 42.126C59.0398 42.5686 58.6808 42.9269 58.2391 42.9269C57.7965 42.9269 57.4383 42.5678 57.4383 42.126C57.4383 41.6857 57.7973 41.325 58.2391 41.325ZM58.2391 36.4622C58.6816 36.4622 59.0398 36.8212 59.0398 37.2631C59.0398 37.7058 58.6808 38.0641 58.2391 38.0641C57.7965 38.0641 57.4383 37.705 57.4383 37.2631C57.4383 36.8228 57.7973 36.4622 58.2391 36.4622ZM54.1764 33.8022C54.619 33.8022 54.9771 34.1612 54.9771 34.6031C54.9771 35.0458 54.6182 35.4041 54.1764 35.4041C53.7338 35.4041 53.3757 35.045 53.3757 34.6031C53.3757 34.1612 53.7338 33.8022 54.1764 33.8022ZM54.1764 48.6377C54.619 48.6377 54.9771 48.9968 54.9771 49.4387C54.9771 49.8813 54.6182 50.2396 54.1764 50.2396C53.7338 50.2396 53.3757 49.8805 53.3757 49.4387C53.3757 48.9984 53.7338 48.6377 54.1764 48.6377ZM49.0456 39.5679H50.928C51.1175 39.5679 51.2703 39.7208 51.2703 39.9103V44.1291C51.2703 44.3186 51.1175 44.4714 50.928 44.4714H49.0496C49.0496 43.4874 49.0456 40.2487 49.0456 39.5679ZM46.7064 46.7993C47.7475 46.7993 48.5952 47.7515 48.5952 48.921C48.5952 50.0906 47.7475 51.0428 46.7064 51.0428C45.6119 51.0428 44.8462 50.2808 44.8462 49.1901C44.8462 49.1145 44.8072 49.0436 44.7443 49.0006C44.7053 48.976 44.6631 48.9616 44.6178 48.9616C44.5875 48.9616 44.5589 48.968 44.5302 48.9799C44.0272 49.1901 43.4541 49.0938 43.0386 48.7291C42.643 48.3828 42.4337 47.851 42.4743 47.3048C42.4822 47.1989 42.4154 47.101 42.3135 47.0683C41.7898 46.9075 41.3965 46.4688 41.2581 45.894C41.1641 45.5047 41.2047 45.1034 41.3663 44.7547C41.7945 45.3399 42.44 45.7205 43.1516 45.8041C43.2782 45.8184 43.3904 45.7284 43.4063 45.6042C43.4207 45.4776 43.3307 45.3654 43.2065 45.3494C42.6056 45.2778 42.0612 44.9482 41.7086 44.4426C41.3416 43.9172 41.2198 43.2564 41.3703 42.6306C41.4968 42.1091 41.8041 41.6521 42.2386 41.3464C42.296 41.3074 42.3302 41.2445 42.3342 41.1752C42.3381 41.1059 42.3119 41.0383 42.2625 40.9921C41.6003 40.3767 41.3782 39.3902 41.7101 38.54C42.0381 37.6985 42.8229 37.1563 43.7048 37.1563C44.8605 37.1563 45.8038 38.0838 45.8523 39.2662C45.8587 39.3927 45.9621 39.4883 46.0911 39.4859C46.2176 39.4795 46.3156 39.3736 46.3108 39.247C46.2535 37.8179 45.1089 36.6969 43.7064 36.6969C43.5783 36.6969 43.4517 36.7072 43.3292 36.7232C43.162 36.3378 43.1843 35.8777 43.396 35.5122C43.5918 35.1738 43.9134 34.978 44.254 34.974H44.2803C44.3472 34.9764 44.4148 34.9844 44.4841 35.0003C44.9449 35.1126 45.2872 35.5688 45.3135 36.1093C45.3198 36.2359 45.4257 36.3315 45.5538 36.3251C45.6804 36.3187 45.7759 36.2113 45.7696 36.0847C45.7305 35.3426 45.2458 34.7129 44.5899 34.556C44.586 34.5537 44.582 34.5537 44.5756 34.5521C44.9465 33.6978 45.9001 33.123 46.8616 33.2113C47.8454 33.3013 48.5873 34.1205 48.5873 35.1149C48.5873 35.9955 48.5873 36.8474 48.5897 37.6785C48.2594 37.3362 47.8662 37.0711 47.4427 36.9182C47.3249 36.8752 47.192 36.9365 47.149 37.0551C47.106 37.173 47.1673 37.3059 47.2859 37.3489C47.7993 37.5344 48.2601 37.9094 48.5897 38.407C48.5897 39.4914 48.596 45.3367 48.5976 47.3908C48.1694 46.7531 47.4833 46.3351 46.7088 46.3351C46.5823 46.3351 46.4804 46.437 46.4804 46.5636C46.478 46.6958 46.5798 46.7993 46.7064 46.7993ZM52.5336 45.0143C52.5336 45.414 52.2097 45.738 51.8101 45.738L49.0513 45.7373V44.93H50.9298C51.3724 44.93 51.7305 44.5709 51.7305 44.129V39.9102C51.7305 39.4676 51.3716 39.1093 50.9298 39.1093H49.0474V38.302H51.8141C52.2136 38.302 52.5376 38.626 52.5376 39.0257L52.5384 45.0144L52.5336 45.0143ZM58.2391 45.9777C58.6816 45.9777 59.0398 46.3368 59.0398 46.7786C59.0398 47.2213 58.6808 47.5796 58.2391 47.5796C57.7965 47.5796 57.4383 47.2205 57.4383 46.7786C57.4383 46.3368 57.7973 45.9777 58.2391 45.9777ZM43.6252 43.8519C43.5393 43.8519 43.4517 43.8455 43.3642 43.8336C43.24 43.8153 43.1524 43.699 43.1708 43.5748C43.1891 43.4506 43.3053 43.3631 43.4294 43.3814C44.0431 43.4713 44.6297 43.1489 44.9553 42.5701C44.4905 42.4093 44.0917 42.0685 43.8306 41.6043C43.474 40.9666 43.4231 40.1752 43.6961 39.4906C43.7431 39.3727 43.8752 39.3154 43.9938 39.3624C44.1116 39.4094 44.1689 39.5415 44.1219 39.6601C43.8999 40.2183 43.9404 40.8623 44.2318 41.3822C44.4785 41.8265 44.8653 42.1139 45.3222 42.1951C45.7051 42.262 46.0943 42.1688 46.4206 41.9284C46.5225 41.8528 46.665 41.875 46.7406 41.977C46.8162 42.0789 46.7939 42.2214 46.6921 42.297C46.3148 42.5765 45.8706 42.7046 45.4225 42.6696C45.0659 43.3957 44.3671 43.8519 43.6252 43.8519ZM46.3887 45.5031C45.7551 45.664 45.268 46.2651 45.1685 46.9911C45.6453 47.2602 46.0305 47.7164 46.2343 48.2873C46.2773 48.4051 46.2136 48.5381 46.0958 48.5787C46.0711 48.5867 46.0448 48.593 46.0186 48.593C45.9247 48.593 45.8371 48.5341 45.8029 48.4425C45.5362 47.6965 44.8636 47.1806 44.1608 47.1806H44.1465H44.1441C44.0199 47.1806 43.9157 47.0787 43.9157 46.9545C43.9133 46.8279 44.0152 46.7244 44.1417 46.7244C44.3455 46.7221 44.5429 46.7507 44.7323 46.808C44.8915 45.9458 45.4845 45.2635 46.2725 45.0637C46.3951 45.0334 46.5192 45.1067 46.5495 45.2285C46.5861 45.3479 46.5105 45.4729 46.3887 45.5031Z" fill="white"/>
<path d="M7.02594 80V71.648H10.1339C10.7419 71.648 11.3019 71.8 11.8139 72.104C12.3339 72.408 12.7459 72.82 13.0499 73.34C13.3539 73.852 13.5059 74.412 13.5059 75.02V76.628C13.5059 77.236 13.3539 77.8 13.0499 78.32C12.7459 78.832 12.3339 79.24 11.8139 79.544C11.3019 79.848 10.7419 80 10.1339 80H7.02594ZM18.6808 71.648H19.1488L22.5808 80H22.1008L20.9728 77.24H16.8568L15.7168 80H15.2488L18.6808 71.648ZM17.0368 76.808H20.7928L18.9088 72.224L17.0368 76.808ZM31.1636 71.648V72.092H28.0076V80H27.5756V72.092H24.4196V71.648H31.1636ZM36.4464 71.648H36.9144L40.3464 80H39.8664L38.7384 77.24H34.6224L33.4824 80H33.0144L36.4464 71.648ZM34.8024 76.808H38.5584L36.6744 72.224L34.8024 76.808ZM42.1852 71.636H42.6652L45.5812 76.796L48.4852 71.636H48.9292V79.988H42.1852V71.636ZM42.6292 79.556H48.4852V72.536L45.7852 77.288H45.3652L42.6292 72.464V79.556ZM54.212 71.648H54.68L58.112 80H57.632L56.504 77.24H52.388L51.248 80H50.78L54.212 71.648ZM52.568 76.808H56.324L54.44 72.224L52.568 76.808ZM66.6948 71.648V72.092H63.5388V80H63.1068V72.092H59.9508V71.648H66.6948ZM68.9896 80V71.648H69.4336V75.596H74.9776V71.648H75.4216V80H74.9776V76.04H69.4336V80H68.9896ZM77.7164 71.648H78.1604V76.808C78.1604 77.336 78.2924 77.824 78.5564 78.272C78.8204 78.72 79.1764 79.076 79.6244 79.34C80.0724 79.604 80.5604 79.736 81.0884 79.736C81.6164 79.736 82.1044 79.604 82.5524 79.34C83.0004 79.076 83.3564 78.72 83.6204 78.272C83.8844 77.824 84.0164 77.336 84.0164 76.808V71.648H84.4604V76.808C84.4604 77.416 84.3084 77.98 84.0044 78.5C83.7004 79.012 83.2884 79.42 82.7684 79.724C82.2564 80.028 81.6964 80.18 81.0884 80.18C80.4804 80.18 79.9164 80.028 79.3964 79.724C78.8844 79.42 78.4764 79.012 78.1724 78.5C77.8684 77.98 77.7164 77.416 77.7164 76.808V71.648ZM91.7833 71.924C92.2633 72.148 92.6393 72.48 92.9113 72.92C93.1913 73.36 93.3313 73.848 93.3313 74.384C93.3313 75.008 93.1393 75.568 92.7553 76.064C92.3793 76.552 91.8953 76.876 91.3033 77.036L93.4273 80H92.8993L90.8473 77.12L90.4633 77.132H87.4513V80H87.0073V71.648H90.1873C90.5393 71.648 90.8393 71.672 91.0873 71.72C91.3433 71.76 91.5753 71.828 91.7833 71.924ZM90.5833 76.688C90.9993 76.688 91.3833 76.584 91.7353 76.376C92.0873 76.168 92.3673 75.888 92.5753 75.536C92.7833 75.184 92.8873 74.8 92.8873 74.384C92.8873 73.92 92.7633 73.5 92.5153 73.124C92.2753 72.748 91.9393 72.468 91.5073 72.284C91.1953 72.156 90.7553 72.092 90.1873 72.092H87.4513V76.688H90.5833Z" fill="white"/>
</svg>
