<svg width="200" height="161" viewBox="0 0 200 161" fill="none" xmlns="http://www.w3.org/2000/svg">
<path d="M133.877 80.0267C132.082 77.9988 130.388 76.0829 128.912 74.2109C125.852 70.327 123.877 65.3339 121.966 60.506C118.026 50.5464 113.953 40.2467 100.318 40.2467C87.0632 40.2467 81.3444 52.7716 76.2991 63.8233C74.5684 67.6138 72.9337 71.1937 71.107 74.0456C69.0243 77.2975 66.0656 80.4281 63.2029 83.4573C59.3268 87.5572 55.3201 91.797 53.2428 96.5635C50.8134 102.139 51.3588 107.662 54.9095 113.447C58.2762 118.932 62.8042 121.897 68.7523 122.509C69.5683 122.593 70.395 122.632 71.2297 122.632C75.6017 122.632 80.2084 121.584 84.6858 120.565C86.7885 120.087 88.9645 119.592 91.0579 119.221L92.2966 119.001C99.194 117.771 99.7567 117.671 107.175 119.011C109.262 119.388 111.458 119.893 113.581 120.384C124.378 122.873 136.616 125.695 144.133 113.448C147.691 107.652 147.963 101.674 144.965 95.1729C142.456 89.7211 138.094 84.7932 133.877 80.0267ZM141.233 111.663C134.997 121.821 124.969 119.509 114.35 117.062C112.187 116.563 109.951 116.047 107.785 115.656C99.7633 114.207 98.846 114.371 91.7019 115.646L90.4672 115.866C88.2925 116.251 86.0765 116.755 83.9338 117.243C78.6351 118.448 73.631 119.585 69.1043 119.12C64.2162 118.617 60.6295 116.248 57.8162 111.664C51.2854 101.026 57.9575 93.9689 65.6816 85.7972C68.6523 82.6546 71.7243 79.4041 73.979 75.8829C75.935 72.8283 77.6191 69.1404 79.4004 65.2379C84.2445 54.6262 89.2539 43.6532 100.319 43.6532C111.638 43.6532 114.957 52.0436 118.8 61.7593C120.8 66.8152 122.868 72.0443 126.237 76.3202C127.773 78.2695 129.498 80.2201 131.326 82.2853C139.436 91.449 147.824 100.927 141.233 111.663ZM116.357 32.1336C123.781 32.1336 128.04 27.2804 128.04 18.8194C128.04 9.91834 123.148 0 116.128 0C109.107 0 104.215 9.91834 104.215 18.8194C104.215 23.2246 105.433 26.6445 107.835 28.9844C109.949 31.0457 112.895 32.1336 116.357 32.1336ZM116.126 3.40656C120.418 3.40656 124.632 11.041 124.632 18.8194C124.632 25.3938 121.848 28.7271 116.356 28.7271C113.093 28.7271 107.621 27.4404 107.621 18.8194C107.621 11.041 111.834 3.40656 116.126 3.40656ZM83.8738 32.1336C87.3352 32.1336 90.2819 31.0443 92.3966 28.9844C94.7979 26.6445 96.0166 23.2246 96.0166 18.8194C96.0166 9.91834 91.1246 0 84.1045 0C77.0844 0 72.1923 9.91834 72.1923 18.8194C72.1923 27.2804 76.4497 32.1336 83.8738 32.1336ZM84.1045 3.40656C88.3965 3.40656 92.6099 11.041 92.6099 18.8194C92.6099 27.4404 87.1365 28.7271 83.8751 28.7271C78.3831 28.7271 75.599 25.3938 75.599 18.8194C75.599 11.041 79.8111 3.40656 84.1045 3.40656ZM144.319 30.7843C137.298 30.7843 132.406 40.7027 132.406 49.6037C132.406 54.0089 133.624 57.4288 136.026 59.7687C138.14 61.8287 141.088 62.918 144.549 62.918C151.973 62.918 156.232 58.0648 156.232 49.6037C156.231 40.7027 151.339 30.7843 144.319 30.7843ZM144.548 59.5114C141.285 59.5114 135.813 58.2248 135.813 49.6037C135.813 41.8253 140.026 34.1909 144.319 34.1909C148.611 34.1909 152.824 41.8253 152.824 49.6037C152.824 56.1782 150.04 59.5114 144.548 59.5114ZM67.8243 49.6037C67.8243 40.7027 62.9322 30.7843 55.9121 30.7843C48.8921 30.7843 44 40.7027 44 49.6037C44 54.0089 45.2173 57.4288 47.62 59.7687C49.7334 61.8287 52.6814 62.918 56.1428 62.918C63.5656 62.918 67.8243 58.0648 67.8243 49.6037ZM47.4067 49.6037C47.4067 41.8253 51.6201 34.1909 55.9121 34.1909C60.2042 34.1909 64.4176 41.8253 64.4176 49.6037C64.4176 56.1782 61.6335 59.5114 56.1415 59.5114C52.8788 59.5114 47.4067 58.2248 47.4067 49.6037Z" fill="white"/>
<path d="M113.977 84.5003C114.1 85.7726 115.176 86.771 116.48 86.771C117.865 86.771 118.995 85.642 118.995 84.2551C118.995 82.8698 117.866 81.7392 116.48 81.7392C115.327 81.7392 114.353 82.5227 114.058 83.5863L105.984 83.5879V79.6183H108.511C108.662 79.6183 108.804 79.5402 108.89 79.4144L111.86 74.9831H114.008C114.224 76.1534 115.251 77.0419 116.481 77.0419C117.866 77.0419 118.997 75.913 118.997 74.5261C118.997 73.1408 117.868 72.0102 116.481 72.0102C115.251 72.0102 114.224 72.8987 114.008 74.0691H111.615C111.464 74.0691 111.322 74.1471 111.236 74.2729L108.266 78.7043H105.983L105.984 78.0562C105.984 76.7521 104.924 75.6916 103.62 75.6916H100.457L102.699 69.6583H105.878C106.094 70.8286 107.121 71.7171 108.352 71.7171C109.737 71.7171 110.867 70.5882 110.867 69.2013C110.867 67.816 109.738 66.6854 108.352 66.6854C107.121 66.6854 106.094 67.5739 105.878 68.7443H102.382C102.191 68.7443 102.019 68.8621 101.954 69.042L99.4846 75.6901L98.0869 75.6917C98.0869 73.9227 98.0821 72.1122 98.0821 70.238C98.0821 67.7715 96.2403 65.7459 93.7982 65.5217C91.3737 65.2972 88.9681 66.8385 88.1787 69.0678C87.2984 69.1824 86.4786 69.7238 85.9867 70.5757C85.4454 71.5056 85.3627 72.6711 85.7463 73.6743C84.3152 74.16 83.1419 75.2634 82.5593 76.7523C81.8254 78.6312 82.217 80.784 83.5208 82.2761C82.693 82.9974 82.1024 83.9639 81.8413 85.0483C81.5516 86.2473 81.6822 87.4989 82.1916 88.5944C81.5484 89.5896 81.3399 90.8156 81.6249 92.0019C81.9464 93.3474 82.8315 94.4031 84.0207 94.892C84.0255 96.1435 84.5508 97.3425 85.4709 98.1451C86.4038 98.9651 87.6391 99.2661 88.8092 98.9969C88.9317 100.102 89.3839 101.051 90.1416 101.769C90.9805 102.564 92.1426 103 93.4098 103C95.9982 103 98.1045 100.685 98.1045 97.8394V92.3857H99.4863L101.955 99.0337C102.021 99.2137 102.191 99.3315 102.384 99.3315H105.879C106.096 100.502 107.123 101.39 108.353 101.39C109.738 101.39 110.868 100.261 110.868 98.8745C110.868 97.4892 109.74 96.3586 108.353 96.3586C107.123 96.3586 106.096 97.2472 105.879 98.4175H102.7L100.459 92.3842H103.622C104.926 92.3842 105.986 91.3237 105.986 90.0196V89.3763H108.269L111.239 93.8076C111.325 93.9334 111.467 94.0115 111.618 94.0115H114.011C114.227 95.1818 115.254 96.0703 116.485 96.0703C117.87 96.0703 119 94.9414 119 93.5545C119 92.1692 117.871 91.0386 116.485 91.0386C115.254 91.0386 114.227 91.9271 114.011 93.0975H111.863L108.887 88.671C108.801 88.5452 108.659 88.4672 108.508 88.4672H105.981V84.4975H113.977L113.977 84.5003ZM116.478 82.6501C117.363 82.6501 118.08 83.3682 118.08 84.2519C118.08 85.1373 117.362 85.8538 116.478 85.8538C115.593 85.8538 114.877 85.1357 114.877 84.2519C114.877 83.3714 115.595 82.6501 116.478 82.6501ZM116.478 72.9244C117.363 72.9244 118.08 73.6425 118.08 74.5262C118.08 75.4116 117.362 76.1281 116.478 76.1281C115.593 76.1281 114.877 75.41 114.877 74.5262C114.877 73.6457 115.595 72.9244 116.478 72.9244ZM108.353 67.6044C109.238 67.6044 109.954 68.3225 109.954 69.2062C109.954 70.0916 109.236 70.8081 108.353 70.8081C107.468 70.8081 106.751 70.09 106.751 69.2062C106.751 68.3225 107.468 67.6044 108.353 67.6044ZM108.353 97.2755C109.238 97.2755 109.954 97.9936 109.954 98.8773C109.954 99.7627 109.236 100.479 108.353 100.479C107.468 100.479 106.751 99.7611 106.751 98.8773C106.751 97.9968 107.468 97.2755 108.353 97.2755ZM98.0912 79.1359H101.856C102.235 79.1359 102.541 79.4416 102.541 79.8206V88.2581C102.541 88.6371 102.235 88.9428 101.856 88.9428H98.0991C98.0991 86.9747 98.0912 80.4974 98.0912 79.1359ZM93.4127 93.5986C95.495 93.5986 97.1903 95.503 97.1903 97.8421C97.1903 100.181 95.4949 102.086 93.4127 102.086C91.2239 102.086 89.6924 100.562 89.6924 98.3802C89.6924 98.229 89.6144 98.0873 89.4887 98.0013C89.4107 97.9519 89.3263 97.9232 89.2356 97.9232C89.1751 97.9232 89.1178 97.936 89.0604 97.9599C88.0543 98.3802 86.9082 98.1876 86.0772 97.4583C85.286 96.7656 84.8673 95.702 84.9485 94.6096C84.9645 94.3978 84.8307 94.202 84.627 94.1367C83.5795 93.815 82.7931 92.9377 82.5161 91.788C82.3283 91.0094 82.4094 90.2069 82.7326 89.5095C83.5891 90.6798 84.8801 91.4409 86.3033 91.6081C86.5564 91.6368 86.7808 91.4568 86.8127 91.2084C86.8413 90.9553 86.6614 90.7307 86.4131 90.6989C85.2112 90.5556 84.1223 89.8964 83.4171 88.8853C82.6832 87.8343 82.4397 86.5127 82.7405 85.2612C82.9936 84.2182 83.6081 83.3042 84.4773 82.6928C84.5919 82.6147 84.6604 82.489 84.6683 82.3504C84.6763 82.2119 84.6237 82.0765 84.525 81.9842C83.2006 80.7533 82.7564 78.7804 83.4203 77.08C84.0762 75.3969 85.6458 74.3125 87.4096 74.3125C89.7211 74.3125 91.6076 76.1676 91.7046 78.5323C91.7173 78.7855 91.9243 78.9766 92.1822 78.9718C92.4353 78.9591 92.6311 78.7473 92.6215 78.4941C92.5069 75.6359 90.2178 73.3938 87.4129 73.3938C87.1566 73.3938 86.9035 73.4145 86.6583 73.4463C86.324 72.6757 86.3686 71.7553 86.792 71.0244C87.1836 70.3477 87.8268 69.956 88.5081 69.9481H88.5606C88.6943 69.9528 88.8297 69.9688 88.9682 70.0006C89.8899 70.2251 90.5744 71.1375 90.6269 72.2187C90.6397 72.4719 90.8514 72.6629 91.1077 72.6502C91.3608 72.6375 91.5518 72.4225 91.5391 72.1693C91.4611 70.6853 90.4916 69.4258 89.1799 69.1121C89.1719 69.1073 89.1639 69.1073 89.1512 69.1041C89.893 67.3956 91.8002 66.2459 93.7233 66.4227C95.6909 66.6026 97.1746 68.2411 97.1746 70.2299C97.1746 71.991 97.1746 73.6947 97.1794 75.3571C96.5187 74.6724 95.7323 74.1421 94.8854 73.8364C94.6498 73.7504 94.3839 73.873 94.298 74.1103C94.212 74.3459 94.3346 74.6119 94.5718 74.6978C95.5986 75.0689 96.5203 75.8188 97.1793 76.814C97.1793 78.9827 97.1921 90.6735 97.1953 94.7816C96.3388 93.5062 94.9666 92.6702 93.4177 92.6702C93.1646 92.6702 92.9608 92.874 92.9608 93.1272C92.956 93.3915 93.1596 93.5986 93.4127 93.5986ZM105.067 90.0287C105.067 90.828 104.419 91.4761 103.62 91.4761L98.1027 91.4745V89.8599H101.86C102.745 89.8599 103.461 89.1418 103.461 88.258V79.8205C103.461 78.9351 102.743 78.2186 101.86 78.2186H98.0947V76.604H103.628C104.427 76.604 105.075 77.2521 105.075 78.0514L105.077 90.0289L105.067 90.0287ZM116.478 91.9554C117.363 91.9554 118.08 92.6735 118.08 93.5573C118.08 94.4426 117.362 95.1591 116.478 95.1591C115.593 95.1591 114.877 94.441 114.877 93.5573C114.877 92.6735 115.595 91.9554 116.478 91.9554ZM87.2505 87.7038C87.0785 87.7038 86.9034 87.6911 86.7283 87.6672C86.48 87.6305 86.3049 87.3981 86.3415 87.1497C86.3781 86.9013 86.6105 86.7261 86.8589 86.7627C88.0862 86.9427 89.2595 86.2978 89.9106 85.1402C88.9809 84.8185 88.1833 84.137 87.6612 83.2087C86.948 81.9332 86.8462 80.3505 87.3922 78.9811C87.4861 78.7455 87.7504 78.6308 87.9875 78.7248C88.2231 78.8187 88.3378 79.083 88.2438 79.3203C87.7997 80.4365 87.8809 81.7247 88.4635 82.7644C88.957 83.653 89.7307 84.2278 90.6445 84.3902C91.4102 84.524 92.1886 84.3377 92.8413 83.8568C93.0451 83.7055 93.33 83.7501 93.4812 83.9539C93.6325 84.1577 93.5879 84.4427 93.3841 84.594C92.6295 85.1529 91.7413 85.4093 90.845 85.3392C90.1318 86.7914 88.7341 87.7038 87.2505 87.7038ZM92.7774 91.0063C91.5102 91.3279 90.536 92.5301 90.337 93.9823C91.2905 94.5205 92.061 95.4329 92.4686 96.5746C92.5545 96.8103 92.4272 97.0762 92.1916 97.1574C92.1422 97.1733 92.0897 97.186 92.0372 97.186C91.8493 97.186 91.6742 97.0682 91.6057 96.8851C91.0725 95.3931 89.7273 94.3613 88.3216 94.3613H88.293H88.2882C88.0399 94.3613 87.8313 94.1575 87.8313 93.9091C87.8265 93.6559 88.0303 93.4489 88.2834 93.4489C88.691 93.4441 89.0858 93.5014 89.4646 93.6161C89.783 91.8916 90.969 90.527 92.545 90.1273C92.7901 90.0668 93.0384 90.2133 93.099 90.4569C93.1722 90.6958 93.021 90.9457 92.7774 91.0063Z" fill="white"/>
<path d="M14.0519 160V143.296H20.2679C21.4839 143.296 22.6039 143.6 23.6279 144.208C24.6679 144.816 25.4919 145.64 26.0999 146.68C26.7079 147.704 27.0119 148.824 27.0119 150.04V153.256C27.0119 154.472 26.7079 155.6 26.0999 156.64C25.4919 157.664 24.6679 158.48 23.6279 159.088C22.6039 159.696 21.4839 160 20.2679 160H14.0519ZM37.3615 143.296H38.2975L45.1615 160H44.2015L41.9455 154.48H33.7135L31.4335 160H30.4975L37.3615 143.296ZM34.0735 153.616H41.5855L37.8175 144.448L34.0735 153.616ZM62.3271 143.296V144.184H56.0151V160H55.1511V144.184H48.8391V143.296H62.3271ZM72.8928 143.296H73.8288L80.6928 160H79.7328L77.4768 154.48H69.2448L66.9648 160H66.0288L72.8928 143.296ZM69.6048 153.616H77.1168L73.3488 144.448L69.6048 153.616ZM84.3704 143.272H85.3304L91.1624 153.592L96.9704 143.272H97.8584V159.976H84.3704V143.272ZM85.2584 159.112H96.9704V145.072L91.5704 154.576H90.7304L85.2584 144.928V159.112ZM108.424 143.296H109.36L116.224 160H115.264L113.008 154.48H104.776L102.496 160H101.56L108.424 143.296ZM105.136 153.616H112.648L108.88 144.448L105.136 153.616ZM133.39 143.296V144.184H127.078V160H126.214V144.184H119.902V143.296H133.39ZM137.979 160V143.296H138.867V151.192H149.955V143.296H150.843V160H149.955V152.08H138.867V160H137.979ZM155.433 143.296H156.321V153.616C156.321 154.672 156.585 155.648 157.113 156.544C157.641 157.44 158.353 158.152 159.249 158.68C160.145 159.208 161.121 159.472 162.177 159.472C163.233 159.472 164.209 159.208 165.105 158.68C166.001 158.152 166.713 157.44 167.241 156.544C167.769 155.648 168.033 154.672 168.033 153.616V143.296H168.921V153.616C168.921 154.832 168.617 155.96 168.009 157C167.401 158.024 166.577 158.84 165.537 159.448C164.513 160.056 163.393 160.36 162.177 160.36C160.961 160.36 159.833 160.056 158.793 159.448C157.769 158.84 156.953 158.024 156.345 157C155.737 155.96 155.433 154.832 155.433 153.616V143.296ZM183.567 143.848C184.527 144.296 185.279 144.96 185.823 145.84C186.383 146.72 186.663 147.696 186.663 148.768C186.663 150.016 186.279 151.136 185.511 152.128C184.759 153.104 183.791 153.752 182.607 154.072L186.855 160H185.799L181.695 154.24L180.927 154.264H174.903V160H174.015V143.296H180.375C181.079 143.296 181.679 143.344 182.175 143.44C182.687 143.52 183.151 143.656 183.567 143.848ZM181.167 153.376C181.999 153.376 182.767 153.168 183.471 152.752C184.175 152.336 184.735 151.776 185.151 151.072C185.567 150.368 185.775 149.6 185.775 148.768C185.775 147.84 185.527 147 185.031 146.248C184.551 145.496 183.879 144.936 183.015 144.568C182.391 144.312 181.511 144.184 180.375 144.184H174.903V153.376H181.167Z" fill="white"/>
</svg>
