<svg width="225" height="246" viewBox="0 0 225 246" fill="none" xmlns="http://www.w3.org/2000/svg">
<path d="M179.754 160.053C176.165 155.998 172.775 152.166 169.823 148.422C163.703 140.654 159.754 130.668 155.933 121.012C148.052 101.093 139.906 80.4934 112.636 80.4934C86.1264 80.4934 74.6889 105.543 64.5981 127.647C61.1367 135.228 57.8674 142.387 54.214 148.091C50.0486 154.595 44.1312 160.856 38.4058 166.915C30.6537 175.114 22.6403 183.594 18.4856 193.127C13.6268 204.279 14.7175 215.324 21.8189 226.894C28.5523 237.864 37.6085 243.795 49.5046 245.019C51.1366 245.187 52.79 245.264 54.4593 245.264C63.2034 245.264 72.4169 243.168 81.3716 241.131C85.577 240.174 89.9291 239.184 94.1158 238.443L96.5932 238.003C110.388 235.542 111.513 235.342 126.351 238.022C130.524 238.776 134.916 239.787 139.162 240.768C160.757 245.747 185.232 251.389 200.266 226.897C207.381 215.305 207.925 203.348 201.93 190.346C196.912 179.442 188.189 169.586 179.754 160.053ZM194.466 223.326C181.994 243.643 161.938 239.019 140.7 234.123C136.375 233.126 131.903 232.094 127.57 231.312C111.527 228.414 109.692 228.742 95.4038 231.291L92.9344 231.731C88.5851 232.502 84.153 233.51 79.8676 234.486C69.2702 236.896 59.262 239.171 50.2086 238.24C40.4325 237.235 33.2591 232.496 27.6323 223.329C14.5708 202.052 27.915 187.938 43.3632 171.594C49.3046 165.309 55.4487 158.808 59.9581 151.766C63.8701 145.657 67.2381 138.281 70.8008 130.476C80.489 109.252 90.5077 87.3065 112.639 87.3065C135.276 87.3065 141.914 104.087 149.599 123.519C153.599 133.63 157.735 144.089 164.474 152.64C167.546 156.539 170.997 160.44 174.653 164.571C190.872 182.898 207.648 201.855 194.466 223.326ZM144.714 64.2672C159.562 64.2672 168.079 54.5609 168.079 37.6388C168.079 19.8367 158.295 0 144.255 0C130.215 0 120.431 19.8367 120.431 37.6388C120.431 46.4492 122.865 53.2889 127.671 57.9688C131.898 62.0913 137.791 64.2672 144.714 64.2672ZM144.252 6.81311C152.836 6.81311 161.263 22.082 161.263 37.6388C161.263 50.7877 155.695 57.4541 144.711 57.4541C138.186 57.4541 127.242 54.8809 127.242 37.6388C127.242 22.082 135.668 6.81311 144.252 6.81311ZM79.7476 64.2672C86.6704 64.2672 92.5638 62.0886 96.7931 57.9688C101.596 53.2889 104.033 46.4492 104.033 37.6388C104.033 19.8367 94.2491 0 80.209 0C66.1688 0 56.3847 19.8367 56.3847 37.6388C56.3847 54.5609 64.8994 64.2672 79.7476 64.2672ZM80.209 6.81311C88.7931 6.81311 97.2198 22.082 97.2198 37.6388C97.2198 54.8809 86.273 57.4541 79.7503 57.4541C68.7662 57.4541 63.1981 50.7877 63.1981 37.6388C63.1981 22.082 71.6222 6.81311 80.209 6.81311ZM200.637 61.5687C186.597 61.5687 176.813 81.4053 176.813 99.2074C176.813 108.018 179.247 114.858 184.053 119.537C188.28 123.657 194.176 125.836 201.098 125.836C215.947 125.836 224.464 116.13 224.464 99.2074C224.461 81.4053 214.677 61.5687 200.637 61.5687ZM201.096 119.023C194.57 119.023 183.626 116.45 183.626 99.2074C183.626 83.6506 192.053 68.3818 200.637 68.3818C209.221 68.3818 217.648 83.6506 217.648 99.2074C217.648 112.356 212.08 119.023 201.096 119.023ZM47.6486 99.2074C47.6486 81.4053 37.8645 61.5687 23.8243 61.5687C9.78412 61.5687 0 81.4053 0 99.2074C0 108.018 2.43469 114.858 7.24009 119.537C11.4668 123.657 17.3629 125.836 24.2856 125.836C39.1311 125.836 47.6486 116.13 47.6486 99.2074ZM6.81341 99.2074C6.81341 83.6506 15.2402 68.3818 23.8243 68.3818C32.4084 68.3818 40.8352 83.6506 40.8352 99.2074C40.8352 112.356 35.2671 119.023 24.283 119.023C17.7575 119.023 6.81341 116.45 6.81341 99.2074Z" fill="black"/>
<path d="M139.954 169.001C140.2 171.545 142.352 173.542 144.959 173.542C147.729 173.542 149.99 171.284 149.99 168.51C149.99 165.74 147.733 163.478 144.959 163.478C142.654 163.478 140.706 165.045 140.117 167.173L123.969 167.176V159.237H129.022C129.324 159.237 129.607 159.08 129.779 158.829L135.72 149.966H140.015C140.448 152.307 142.502 154.084 144.963 154.084C147.733 154.084 149.993 151.826 149.993 149.052C149.993 146.282 147.736 144.02 144.963 144.02C142.502 144.02 140.448 145.797 140.015 148.138H135.23C134.928 148.138 134.644 148.294 134.472 148.546L128.531 157.409H123.966L123.969 156.112C123.969 153.504 121.848 151.383 119.241 151.383H112.915L117.397 139.317H123.755C124.188 141.657 126.242 143.434 128.703 143.434C131.473 143.434 133.734 141.176 133.734 138.403C133.734 135.632 131.476 133.371 128.703 133.371C126.242 133.371 124.188 135.148 123.755 137.489H116.764C116.382 137.489 116.038 137.724 115.907 138.084L110.969 151.38L108.174 151.383C108.174 147.845 108.164 144.224 108.164 140.476C108.164 135.543 104.481 131.492 99.5963 131.043C94.7474 130.594 89.9363 133.677 88.3575 138.136C86.5968 138.365 84.9571 139.448 83.9734 141.151C82.8909 143.011 82.7253 145.342 83.4926 147.349C80.6304 148.32 78.2839 150.527 77.1186 153.505C75.6508 157.262 76.4341 161.568 79.0416 164.552C77.3861 165.995 76.2048 167.928 75.6827 170.097C75.1032 172.495 75.3643 174.998 76.3831 177.189C75.0969 179.179 74.6798 181.631 75.2497 184.004C75.8928 186.695 77.663 188.806 80.0414 189.784C80.0509 192.287 81.1016 194.685 82.9418 196.29C84.8076 197.93 87.2782 198.532 89.6183 197.994C89.8635 200.204 90.7677 202.102 92.2832 203.538C93.961 205.127 96.2853 206 98.8195 206C103.996 206 108.209 201.37 108.209 195.679V184.771H110.973L115.911 198.067C116.041 198.427 116.382 198.663 116.767 198.663H123.759C124.192 201.004 126.245 202.781 128.706 202.781C131.476 202.781 133.737 200.523 133.737 197.749C133.737 194.978 131.48 192.717 128.706 192.717C126.245 192.717 124.192 194.494 123.759 196.835H117.401L112.918 184.768H119.244C121.852 184.768 123.972 182.647 123.972 180.039V178.753H128.538L134.479 187.615C134.651 187.867 134.934 188.023 135.237 188.023H140.022C140.455 190.364 142.508 192.141 144.97 192.141C147.739 192.141 150 189.883 150 187.109C150 184.338 147.743 182.077 144.97 182.077C142.508 182.077 140.455 183.854 140.022 186.195H135.727L129.773 177.342C129.601 177.09 129.318 176.934 129.015 176.934H123.963V168.995H139.955L139.954 169.001ZM144.956 165.3C146.726 165.3 148.159 166.736 148.159 168.504C148.159 170.275 146.723 171.708 144.956 171.708C143.186 171.708 141.753 170.271 141.753 168.504C141.753 166.743 143.189 165.3 144.956 165.3ZM144.956 145.849C146.726 145.849 148.159 147.285 148.159 149.052C148.159 150.823 146.723 152.256 144.956 152.256C143.186 152.256 141.753 150.82 141.753 149.052C141.753 147.291 143.189 145.849 144.956 145.849ZM128.706 135.209C130.476 135.209 131.909 136.645 131.909 138.412C131.909 140.183 130.473 141.616 128.706 141.616C126.935 141.616 125.503 140.18 125.503 138.412C125.503 136.645 126.935 135.209 128.706 135.209ZM128.706 194.551C130.476 194.551 131.909 195.987 131.909 197.755C131.909 199.525 130.473 200.958 128.706 200.958C126.935 200.958 125.503 199.522 125.503 197.755C125.503 195.994 126.935 194.551 128.706 194.551ZM108.182 158.272H115.712C116.47 158.272 117.081 158.883 117.081 159.641V176.516C117.081 177.274 116.47 177.886 115.712 177.886H108.198C108.198 173.949 108.182 160.995 108.182 158.272ZM98.8255 187.197C102.99 187.197 106.381 191.006 106.381 195.684C106.381 200.362 102.99 204.171 98.8255 204.171C94.4477 204.171 91.3849 201.123 91.3849 196.76C91.3849 196.458 91.2289 196.175 90.9773 196.003C90.8213 195.904 90.6526 195.846 90.4711 195.846C90.3501 195.846 90.2355 195.872 90.1209 195.92C88.1087 196.76 85.8164 196.375 84.1544 194.917C82.572 193.531 81.7347 191.404 81.8971 189.219C81.9289 188.796 81.6615 188.404 81.254 188.273C79.159 187.63 77.5862 185.875 77.0322 183.576C76.6565 182.019 76.8189 180.414 77.4652 179.019C79.1781 181.36 81.7602 182.882 84.6065 183.216C85.1127 183.274 85.5617 182.914 85.6253 182.417C85.6826 181.911 85.3229 181.461 84.8262 181.398C82.4224 181.111 80.2447 179.793 78.8342 177.771C77.3664 175.669 76.8794 173.025 77.481 170.522C77.9873 168.436 79.2162 166.608 80.9546 165.386C81.1838 165.229 81.3207 164.978 81.3366 164.701C81.3526 164.424 81.2475 164.153 81.0501 163.968C78.4012 161.507 77.5129 157.561 78.8405 154.16C80.1523 150.794 83.2915 148.625 86.8193 148.625C91.4422 148.625 95.2152 152.335 95.4092 157.065C95.4346 157.571 95.8485 157.953 96.3643 157.944C96.8706 157.918 97.2622 157.495 97.2431 156.988C97.0138 151.272 92.4355 146.788 86.8258 146.788C86.3132 146.788 85.8069 146.829 85.3166 146.893C84.648 145.351 84.7371 143.511 85.584 142.049C86.3673 140.695 87.6536 139.912 89.0162 139.896H89.1213C89.3887 139.906 89.6593 139.938 89.9363 140.001C91.7797 140.45 93.1488 142.275 93.2539 144.437C93.2793 144.944 93.7028 145.326 94.2154 145.3C94.7216 145.275 95.1036 144.845 95.0782 144.339C94.9222 141.371 92.9833 138.852 90.3597 138.224C90.3438 138.215 90.3279 138.215 90.3024 138.208C91.7861 134.791 95.6003 132.492 99.4466 132.845C103.382 133.205 106.349 136.482 106.349 140.46C106.349 143.982 106.349 147.389 106.359 150.714C105.037 149.345 103.465 148.284 101.771 147.673C101.3 147.501 100.768 147.746 100.596 148.221C100.424 148.692 100.669 149.224 101.144 149.396C103.197 150.138 105.041 151.638 106.359 153.628C106.359 157.965 106.384 181.347 106.391 189.563C104.678 187.012 101.933 185.34 98.8353 185.34C98.3291 185.34 97.9216 185.748 97.9216 186.254C97.912 186.783 98.3192 187.197 98.8255 187.197ZM122.135 180.057C122.135 181.656 120.839 182.952 119.24 182.952L108.205 182.949V179.72H115.719C117.489 179.72 118.922 178.284 118.922 176.516V159.641C118.922 157.87 117.486 156.437 115.719 156.437H108.189V153.208H119.256C120.855 153.208 122.15 154.504 122.15 156.103L122.154 180.058L122.135 180.057ZM144.956 183.911C146.726 183.911 148.159 185.347 148.159 187.115C148.159 188.885 146.723 190.318 144.956 190.318C143.186 190.318 141.753 188.882 141.753 187.115C141.753 185.347 143.189 183.911 144.956 183.911ZM86.5009 175.408C86.1571 175.408 85.8069 175.382 85.4567 175.334C84.96 175.261 84.6098 174.796 84.683 174.299C84.7563 173.803 85.2211 173.452 85.7177 173.525C88.1725 173.885 90.5189 172.596 91.8212 170.28C89.9618 169.637 88.3667 168.274 87.3224 166.417C85.8961 163.866 85.6923 160.701 86.7844 157.962C86.9722 157.491 87.5007 157.262 87.9751 157.45C88.4463 157.637 88.6755 158.166 88.4877 158.641C87.5994 160.873 87.7618 163.449 88.927 165.529C89.914 167.306 91.4614 168.456 93.2889 168.78C94.8203 169.048 96.3773 168.675 97.6826 167.714C98.0901 167.411 98.66 167.5 98.9625 167.908C99.2649 168.315 99.1758 168.885 98.7683 169.188C97.2591 170.306 95.4826 170.819 93.69 170.678C92.2637 173.583 89.4683 175.408 86.5009 175.408ZM97.5548 182.013C95.0204 182.656 93.072 185.06 92.674 187.965C94.581 189.041 96.1221 190.866 96.9371 193.149C97.1091 193.621 96.8544 194.152 96.3832 194.315C96.2845 194.347 96.1794 194.372 96.0743 194.372C95.6986 194.372 95.3484 194.136 95.2115 193.77C94.1449 190.786 91.4546 188.723 88.6433 188.723H88.5859H88.5764C88.0797 188.723 87.6626 188.315 87.6626 187.818C87.6531 187.312 88.0606 186.898 88.5669 186.898C89.3819 186.888 90.1715 187.003 90.9292 187.232C91.566 183.783 93.9379 181.054 97.0899 180.255C97.5802 180.134 98.0769 180.427 98.1979 180.914C98.3444 181.392 98.0419 181.891 97.5548 182.013Z" fill="black"/>
</svg>
